<?xml version="1.0" encoding="UTF-8"?>
<!DOCTYPE svg PUBLIC "-//W3C//DTD SVG 1.1//EN" "http://www.w3.org/Graphics/SVG/1.1/DTD/svg11.dtd">
<svg xmlns="http://www.w3.org/2000/svg" version="1.1" width="161px" height="476px" style="shape-rendering:geometricPrecision; text-rendering:geometricPrecision; image-rendering:optimizeQuality; fill-rule:evenodd; clip-rule:evenodd" xmlns:xlink="http://www.w3.org/1999/xlink">
<g><path style="opacity:0.957" fill="#fcfcfc" d="M 66.5,-0.5 C 74.5,-0.5 82.5,-0.5 90.5,-0.5C 116.829,5.15745 135.829,20.1575 147.5,44.5C 143.951,50.9316 138.617,52.9316 131.5,50.5C 112.192,16.5643 84.5255,7.06427 48.5,22C 31.2909,33.2457 21.2909,49.079 18.5,69.5C 61.8335,69.1869 105.167,68.8535 148.5,68.5C 148.741,103.213 133.741,128.713 103.5,145C 61.3981,158.85 27.5648,147.684 2,111.5C 0.0714242,107.149 1.23809,103.649 5.5,101C 8.55413,100.179 11.5541,100.345 14.5,101.5C 35.1519,134.662 63.4852,143.829 99.5,129C 116.34,118.831 126.34,103.997 129.5,84.5C 86.5022,85.0641 43.5022,85.3974 0.5,85.5C 0.534002,57.9414 10.534,34.7748 30.5,16C 41.1901,7.48584 53.1901,1.98584 66.5,-0.5 Z"/></g>
<g><path style="opacity:0.955" fill="#fcfcfc" d="M 63.5,159.5 C 96.6322,156.16 122.799,167.826 142,194.5C 150.475,209.373 154.308,225.373 153.5,242.5C 130.5,242.5 107.5,242.5 84.5,242.5C 84.8271,264.742 84.4938,286.909 83.5,309C 61.2,309.095 41.2,302.428 23.5,289C 6.12783,272.226 -1.37217,251.726 1,227.5C 5.04745,189.29 25.8808,166.623 63.5,159.5 Z M 66.5,174.5 C 68.0174,174.511 69.1841,175.177 70,176.5C 70.4999,193.163 70.6666,209.83 70.5,226.5C 54.1633,226.667 37.8299,226.5 21.5,226C 20.1667,225.667 18.8333,225.333 17.5,225C 18.7351,210.538 25.0684,198.538 36.5,189C 45.6649,182.25 55.6649,177.416 66.5,174.5 Z M 85.5,174.5 C 112.783,179.785 130.116,195.785 137.5,222.5C 137.392,223.442 137.059,224.275 136.5,225C 135.167,225.333 133.833,225.667 132.5,226C 116.17,226.5 99.8367,226.667 83.5,226.5C 83.3334,209.83 83.5001,193.163 84,176.5C 84.7172,175.956 85.2172,175.289 85.5,174.5 Z M 25.5,241.5 C 40.5,241.5 55.5,241.5 70.5,241.5C 70.6666,258.17 70.4999,274.837 70,291.5C 69.3109,292.357 68.4776,293.023 67.5,293.5C 40.7887,287.788 23.7887,271.788 16.5,245.5C 16.6082,244.558 16.9415,243.725 17.5,243C 20.3647,242.817 23.0314,242.317 25.5,241.5 Z"/></g>
<g><path style="opacity:0.962" fill="#fcfcfc" d="M 69.5,315.5 C 109.057,314.507 136.224,332.173 151,368.5C 161.25,411.821 146.75,443.655 107.5,464C 66.3713,477.292 33.8713,466.126 10,430.5C -8.41817,388.899 0.415168,354.399 36.5,327C 46.8966,321.036 57.8966,317.203 69.5,315.5 Z M 68.5,333.5 C 104.103,331.953 126.603,348.286 136,382.5C 139.09,414.394 125.923,436.56 96.5,449C 65.7319,456.747 41.8986,447.247 25,420.5C 11.6802,388.604 18.8469,362.438 46.5,342C 53.6067,338.248 60.9401,335.415 68.5,333.5 Z"/></g>
<g><path style="opacity:0.964" fill="#fbfbfb" d="M 73.5,373.5 C 90.6398,373.14 98.1398,381.474 96,398.5C 89.1778,412.042 79.0111,415.209 65.5,408C 58.1382,400.571 56.6382,392.071 61,382.5C 64.2599,378.049 68.4265,375.049 73.5,373.5 Z"/></g>
</svg>
