{
  "accessors": [
    {
      "bufferView": 2,
      "componentType": 5126,
      "count": 5024,
      "max": [
        0.12751497328281403,
        0.12751497328281403,
        0.4394349753856659
      ],
      "min": [
        -0.12751498818397522,
        -0.12751497328281403,
        -0.00011807833652710542
      ],
      "type": "VEC3"
    },
    {
      "bufferView": 2,
      "byteOffset": 60288,
      "componentType": 5126,
      "count": 5024,
      "max": [
        0.9999996423721313,
        0.9999996423721313,
        1.0
      ],
      "min": [
        -0.9999996423721313,
        -0.9999996423721313,
        -1.0
      ],
      "type": "VEC3"
    },
    {
      "bufferView": 3,
      "componentType": 5126,
      "count": 5024,
      "max": [
        0.9992620944976807,
        0.9999876618385315,
        0.9999902844429016,
        1.0
      ],
      "min": [
        -0.9990389347076416,
        -0.9999878406524658,
        -0.9999656081199646,
        1.0
      ],
      "type": "VEC4"
    },
    {
      "bufferView": 1,
      "componentType": 5126,
      "count": 5024,
      "max": [
        0.9777895212173462,
        0.9828169345855713
      ],
      "min": [
        0.09417182207107544,
        0.0032023699022829533
      ],
      "type": "VEC2"
    },
    {
      "bufferView": 1,
      "byteOffset": 40192,
      "componentType": 5126,
      "count": 5024,
      "max": [
        0.9777895212173462,
        0.9828169345855713
      ],
      "min": [
        0.09417182207107544,
        0.0032023699022829533
      ],
      "type": "VEC2"
    },
    {
      "bufferView": 1,
      "byteOffset": 80384,
      "componentType": 5126,
      "count": 5024,
      "max": [
        0.9777895212173462,
        0.9828169345855713
      ],
      "min": [
        0.09417182207107544,
        0.0032023699022829533
      ],
      "type": "VEC2"
    },
    {
      "bufferView": 0,
      "componentType": 5125,
      "count": 28224,
      "type": "SCALAR"
    }
  ],
  "asset": {
    "extras": {
      "author": "mohamedhussien (https://sketchfab.com/mohamedhussien)",
      "license": "CC-BY-SA-4.0 (http://creativecommons.org/licenses/by-sa/4.0/)",
      "source": "https://sketchfab.com/3d-models/4k-antique-ceramic-vase-5952108871aa4e5eb63258dca1c93fb2",
      "title": "4k Antique Ceramic Vase"
    },
    "generator": "Sketchfab-12.67.0",
    "version": "2.0"
  },
  "bufferViews": [
    {
      "buffer": 0,
      "byteLength": 112896,
      "name": "floatBufferViews",
      "target": 34963
    },
    {
      "buffer": 0,
      "byteLength": 120576,
      "byteOffset": 112896,
      "byteStride": 8,
      "name": "floatBufferViews",
      "target": 34962
    },
    {
      "buffer": 0,
      "byteLength": 120576,
      "byteOffset": 233472,
      "byteStride": 12,
      "name": "floatBufferViews",
      "target": 34962
    },
    {
      "buffer": 0,
      "byteLength": 80384,
      "byteOffset": 354048,
      "byteStride": 16,
      "name": "floatBufferViews",
      "target": 34962
    }
  ],
  "buffers": [
    {
      "byteLength": 434432,
      "uri": "scene.bin"
    }
  ],
  "images": [
    {
      "uri": "textures/antique_ceramic_vase_01_baseColor.jpeg"
    },
    {
      "uri": "textures/antique_ceramic_vase_01_metallicRoughness.png"
    },
    {
      "uri": "textures/antique_ceramic_vase_01_normal.png"
    }
  ],
  "materials": [
    {
      "doubleSided": true,
      "name": "antique_ceramic_vase_01",
      "normalTexture": {
        "index": 2
      },
      "occlusionTexture": {
        "index": 1
      },
      "pbrMetallicRoughness": {
        "baseColorTexture": {
          "index": 0
        },
        "metallicRoughnessTexture": {
          "index": 1
        }
      }
    }
  ],
  "meshes": [
    {
      "name": "antique_ceramic_vase_01_antique_ceramic_vase_01_0",
      "primitives": [
        {
          "attributes": {
            "NORMAL": 1,
            "POSITION": 0,
            "TANGENT": 2,
            "TEXCOORD_0": 3,
            "TEXCOORD_1": 4,
            "TEXCOORD_2": 5
          },
          "indices": 6,
          "material": 0,
          "mode": 4
        }
      ]
    }
  ],
  "nodes": [
    {
      "children": [
        1
      ],
      "matrix": [
        1.0,
        0.0,
        0.0,
        0.0,
        0.0,
        2.220446049250313e-16,
        -1.0,
        0.0,
        0.0,
        1.0,
        2.220446049250313e-16,
        0.0,
        0.0,
        0.0,
        0.0,
        1.0
      ],
      "name": "Sketchfab_model"
    },
    {
      "children": [
        2
      ],
      "matrix": [
        0.009999999776482582,
        0.0,
        0.0,
        0.0,
        0.0,
        0.0,
        0.009999999776482582,
        0.0,
        0.0,
        -0.009999999776482582,
        0.0,
        0.0,
        0.0,
        0.0,
        0.0,
        1.0
      ],
      "name": "antique_ceramic_vase_01_4k.fbx"
    },
    {
      "children": [
        3
      ],
      "name": "RootNode"
    },
    {
      "children": [
        4
      ],
      "matrix": [
        100.0,
        0.0,
        0.0,
        0.0,
        0.0,
        -1.629206793918314e-05,
        -99.99999999999868,
        0.0,
        0.0,
        99.99999999999868,
        -1.629206793918314e-05,
        0.0,
        0.0,
        0.0,
        0.0,
        1.0
      ],
      "name": "antique_ceramic_vase_01"
    },
    {
      "mesh": 0,
      "name": "antique_ceramic_vase_01_antique_ceramic_vase_01_0"
    }
  ],
  "samplers": [
    {
      "magFilter": 9729,
      "minFilter": 9987,
      "wrapS": 10497,
      "wrapT": 10497
    }
  ],
  "scene": 0,
  "scenes": [
    {
      "name": "Sketchfab_Scene",
      "nodes": [
        0
      ]
    }
  ],
  "textures": [
    {
      "sampler": 0,
      "source": 0
    },
    {
      "sampler": 0,
      "source": 1
    },
    {
      "sampler": 0,
      "source": 2
    }
  ]
}
